<svg xmlns="http://www.w3.org/2000/svg" xml:space="preserve"
	 style="fill-rule:evenodd;clip-rule:evenodd;stroke-linejoin:round;stroke-miterlimit:2" viewBox="0 0 250 250"><path d="M109.849 38.24a29.377 29.377 0 0 1 27.093 0 1511.975 1511.975 0 0 1 70.852 39.472c8.5 5.06 13.817 14.056 14.109 23.874.722 25.859.722 51.916 0 77.774-.293 9.818-5.609 18.814-14.109 23.874a1511.083 1511.083 0 0 1-70.852 39.473 29.38 29.38 0 0 1-27.093 0 1511.435 1511.435 0 0 1-70.851-39.472c-8.501-5.061-13.818-14.057-14.11-23.875a1395.61 1395.61 0 0 1 .001-77.774c.292-9.817 5.608-18.813 14.109-23.874a1511.435 1511.435 0 0 1 70.851-39.472Z" style="fill:#074d39" transform="matrix(1.16713 0 0 1.17851 -19.019 -41.226)"/>
	<path d="m464.91 265.77 4.07-2.25a6.566 6.566 0 0 0 2.571-9.18l-11.305-18.672a7.22 7.22 0 0 0-9.625-2.461l-4.122 2.274v.004a7.457 7.457 0 0 1-8.007-.657 60.263 60.263 0 0 0-13.125-7.308 6.883 6.883 0 0 1-4.582-6.289v-4.508a6.876 6.876 0 0 0-7-6.719h-22.566a6.876 6.876 0 0 0-7 6.719v4.508a6.893 6.893 0 0 1-4.586 6.289 60.263 60.263 0 0 0-13.125 7.308 7.46 7.46 0 0 1-8.008.657l-4.121-2.274v-.004a7.22 7.22 0 0 0-9.625 2.461l-11.27 18.672a6.562 6.562 0 0 0 2.574 9.18l4.07 2.25h-.004a6.483 6.483 0 0 1 3.5 6.543 54.007 54.007 0 0 0 0 15.383 6.482 6.482 0 0 1-3.5 6.543l-4.07 2.25h.004a6.562 6.562 0 0 0-2.574 9.18l11.262 18.672a7.22 7.22 0 0 0 9.625 2.461l4.121-2.274v-.004a7.46 7.46 0 0 1 8.008.657 60.263 60.263 0 0 0 13.125 7.308 6.883 6.883 0 0 1 4.582 6.289v4.508a6.876 6.876 0 0 0 7 6.719h22.559a6.876 6.876 0 0 0 7-6.719v-4.508a6.893 6.893 0 0 1 4.621-6.273 60.395 60.395 0 0 0 13.125-7.305 7.444 7.444 0 0 1 8.004-.656l4.121 2.273a7.217 7.217 0 0 0 9.625-2.457l11.27-18.672.004-.004a6.563 6.563 0 0 0-2.574-9.175l-4.071-2.25a6.505 6.505 0 0 1-3.5-6.547 53.618 53.618 0 0 0 0-15.379 6.5 6.5 0 0 1 3.52-6.563h-.001Zm-62.414 39.234a25.005 25.005 0 0 1-25-25 25.005 25.005 0 0 1 25-25 25.001 25.001 0 0 1 17.676 7.324 25 25 0 0 1 7.324 17.676 25.001 25.001 0 0 1-7.324 17.676 25 25 0 0 1-17.676 7.324Z"
		  style="fill:#fff;fill-rule:nonzero" transform="matrix(.2924 0 0 .2924 5.07 42.048)"/>
	<path d="M612.5 411.25H490a8.75 8.75 0 0 0-8.75 8.75v122.5a8.753 8.753 0 0 0 8.75 8.75h122.5c2.32 0 4.547-.922 6.188-2.562a8.756 8.756 0 0 0 2.562-6.188V420a8.752 8.752 0 0 0-8.75-8.75Z"
		  style="fill:#fff;fill-rule:nonzero" transform="matrix(.2924 0 0 .2924 -107.731 -16.84)"/>
	<text x="33.462" y="133.293"
		  style="font-family:&quot;Avenir-Black&quot;,&quot;Avenir&quot;,sans-serif;font-weight:800;font-size:33.848px;fill:#074d39"
		  transform="matrix(1 0 0 1 10 2.802)">?</text>
	<path d="M253.75 271.25c10.208-2.917 51.042-2.917 61.25 0 5.609 1.603 5.609 15.897 0 17.5-10.208 2.917-51.042 2.917-61.25 0-5.609-1.603-5.609-15.897 0-17.5Z"
		  style="fill:#fff;fill-rule:nonzero" transform="matrix(.3846 0 0 .14073 -19.769 84.791)"/>
	<path d="M393.75 97.899s-3.616 139.019-.839 166.823c.58 5.805 16.828 5.795 17.5 0 3.057-26.345.839-158.073.839-158.073s118.886 2.764 142.663-.183c5.789-.717 5.796-16.837 0-17.5-25.235-2.886-151.413.183-151.413.183a8.75 8.75 0 0 0-8.75 8.75Z"
		  style="fill:#fff;fill-rule:nonzero" transform="matrix(.1802 0 0 .15978 50.242 57.865)"/>
	<path d="M393.75 97.899s-3.616 139.019-.839 166.823c.58 5.805 16.828 5.795 17.5 0 3.057-26.345.839-158.073.839-158.073s28.458.661 60.312.992c33.253.346 70.207.331 82.351-1.175 5.789-.717 5.796-16.837 0-17.5-25.235-2.886-151.413.183-151.413.183a8.75 8.75 0 0 0-8.75 8.75Z"
		  style="fill:#fff;fill-rule:nonzero" transform="matrix(0 -.1802 .15978 0 106.979 247.88)"/>
	<path d="M612.5 8.75H490a8.75 8.75 0 0 0-8.75 8.75V140a8.753 8.753 0 0 0 8.75 8.75h122.5c2.32 0 4.547-.922 6.188-2.562A8.756 8.756 0 0 0 621.25 140V17.5a8.752 8.752 0 0 0-8.75-8.75ZM538.879 111.5a8.75 8.75 0 0 1-12.375 0l-18.566-18.566 12.371-12.371 12.383 12.383 49.5-49.508 12.371 12.371-55.684 55.691Z"
		  style="fill:#fff;fill-rule:nonzero" transform="matrix(.2924 0 0 .2924 12.07 50.048)"/>
	<path d="M612.5 411.25H490a8.75 8.75 0 0 0-8.75 8.75v122.5a8.753 8.753 0 0 0 8.75 8.75h122.5c2.32 0 4.547-.922 6.188-2.562a8.756 8.756 0 0 0 2.562-6.188V420a8.752 8.752 0 0 0-8.75-8.75Zm-24.125 94.746-12.383 12.383-24.742-24.758-24.746 24.754-12.383-12.383 24.758-24.742-24.754-24.746 12.383-12.383 24.742 24.758 24.746-24.754 12.383 12.383-24.758 24.742 24.754 24.746Z"
		  style="fill:#fff;fill-rule:nonzero" transform="matrix(.2924 0 0 .2924 12.07 34.048)"/>
</svg>
